<svg width="523" height="375" viewBox="0 0 523 375" fill="none" xmlns="http://www.w3.org/2000/svg">
<path fill-rule="evenodd" clip-rule="evenodd" d="M225.791 7.65827C223.136 2.92828 218.135 0 212.711 0H124.249C113.471 0 106.736 11.6667 112.124 21L150.283 87.0928C152.818 91.483 152.964 96.8565 150.671 101.378L67.2728 265.816C64.1217 272.03 56.9666 275 50 275V275C22.3858 275 0 297.386 0 325C0 352.614 22.3858 375 50 375C77.6142 375 100 352.614 100 325C100 308.418 91.9284 293.722 79.5 284.626C71.8022 278.992 66.9497 268.664 71.2645 260.157L142.419 119.858C147.807 109.235 162.832 108.827 168.787 119.143L304.382 354C309.771 363.333 323.242 363.333 328.631 354L370.784 280.989C373.431 276.404 373.465 270.763 370.874 266.147L225.791 7.65827ZM443.121 110.382C448.813 120.522 463.378 120.611 469.192 110.541L520.888 21C526.277 11.6667 519.541 0 508.764 0H406.787C395.321 0 388.094 12.3429 393.706 22.3417L443.121 110.382Z" fill="white"/>
</svg>
